<svg width="150" height="32" viewBox="0 0 150 32" fill="none" xmlns="http://www.w3.org/2000/svg">
<path d="M12.0234 26H1.85156V8.86719H12.0234V12.582H6.48047V15.2773H11.6133V18.9922H6.48047V22.2266H12.0234V26ZM23.1328 26V18.7578C23.1328 17.875 23.0039 17.2109 22.7461 16.7656C22.4961 16.3125 22.0898 16.0859 21.5273 16.0859C20.7539 16.0859 20.1953 16.3945 19.8516 17.0117C19.5078 17.6289 19.3359 18.6875 19.3359 20.1875V26H14.7539V12.7227H18.2109L18.7852 14.3633H19.0547C19.4453 13.7383 19.9844 13.2695 20.6719 12.957C21.3672 12.6445 22.1641 12.4883 23.0625 12.4883C24.5312 12.4883 25.6719 12.9141 26.4844 13.7656C27.3047 14.6172 27.7148 15.8164 27.7148 17.3633V26H23.1328ZM43.3594 12.7227V14.9375L41.543 15.6055C41.793 16.0586 41.918 16.5859 41.918 17.1875C41.918 18.6172 41.4141 19.7266 40.4062 20.5156C39.4062 21.3047 37.9102 21.6992 35.918 21.6992C35.4258 21.6992 35.0352 21.668 34.7461 21.6055C34.6367 21.8086 34.582 22 34.582 22.1797C34.582 22.4062 34.7656 22.582 35.1328 22.707C35.5 22.8242 35.9805 22.8828 36.5742 22.8828H38.7773C41.7539 22.8828 43.2422 24.1367 43.2422 26.6445C43.2422 28.2617 42.5508 29.5195 41.168 30.418C39.793 31.3164 37.8594 31.7656 35.3672 31.7656C33.4844 31.7656 32.0312 31.4492 31.0078 30.8164C29.9922 30.1914 29.4844 29.2891 29.4844 28.1094C29.4844 26.5234 30.4688 25.5 32.4375 25.0391C32.0312 24.8672 31.6758 24.5898 31.3711 24.207C31.0742 23.8242 30.9258 23.4453 30.9258 23.0703C30.9258 22.6562 31.0391 22.293 31.2656 21.9805C31.4922 21.6602 31.9648 21.2812 32.6836 20.8438C31.9961 20.5391 31.4531 20.0625 31.0547 19.4141C30.6641 18.7656 30.4688 17.9766 30.4688 17.0469C30.4688 15.6016 30.9609 14.4805 31.9453 13.6836C32.9297 12.8867 34.3359 12.4883 36.1641 12.4883C36.4062 12.4883 36.8242 12.5156 37.418 12.5703C38.0117 12.625 38.4492 12.6758 38.7305 12.7227H43.3594ZM33.3516 27.6523C33.3516 28.0273 33.5547 28.3281 33.9609 28.5547C34.3672 28.7891 34.9102 28.9062 35.5898 28.9062C36.6992 28.9062 37.5859 28.7656 38.25 28.4844C38.9219 28.2109 39.2578 27.8555 39.2578 27.418C39.2578 27.0664 39.0547 26.8164 38.6484 26.668C38.2422 26.5273 37.6602 26.457 36.9023 26.457H35.1094C34.6172 26.457 34.1992 26.5703 33.8555 26.7969C33.5195 27.0312 33.3516 27.3164 33.3516 27.6523ZM34.793 17.0703C34.793 18.4297 35.2656 19.1094 36.2109 19.1094C36.6484 19.1094 36.9844 18.9414 37.2188 18.6055C37.4609 18.2695 37.582 17.7656 37.582 17.0938C37.582 15.7188 37.125 15.0312 36.2109 15.0312C35.2656 15.0312 34.793 15.7109 34.793 17.0703ZM49.9688 26H45.3867V7.76562H49.9688V26ZM57.75 26H53.168V12.7227H57.75V26ZM53.0508 9.41797C53.0508 8.73047 53.2422 8.21875 53.625 7.88281C54.0078 7.54687 54.625 7.37891 55.4766 7.37891C56.3281 7.37891 56.9492 7.55078 57.3398 7.89453C57.7305 8.23828 57.9258 8.74609 57.9258 9.41797C57.9258 10.7617 57.1094 11.4336 55.4766 11.4336C53.8594 11.4336 53.0508 10.7617 53.0508 9.41797ZM71.2031 21.9219C71.2031 23.3438 70.7188 24.418 69.75 25.1445C68.7812 25.8711 67.3906 26.2344 65.5781 26.2344C64.5938 26.2344 63.7383 26.1797 63.0117 26.0703C62.2852 25.9688 61.543 25.7773 60.7852 25.4961V21.8281C61.4961 22.1406 62.2734 22.3984 63.1172 22.6016C63.9688 22.8047 64.7266 22.9062 65.3906 22.9062C66.3828 22.9062 66.8789 22.6797 66.8789 22.2266C66.8789 21.9922 66.7383 21.7852 66.457 21.6055C66.1836 21.418 65.3789 21.0586 64.043 20.5273C62.8242 20.0273 61.9727 19.4609 61.4883 18.8281C61.0039 18.1875 60.7617 17.3789 60.7617 16.4023C60.7617 15.168 61.2383 14.207 62.1914 13.5195C63.1445 12.832 64.4922 12.4883 66.2344 12.4883C67.1094 12.4883 67.9297 12.5859 68.6953 12.7812C69.4688 12.9688 70.2695 13.2461 71.0977 13.6133L69.8555 16.5664C69.2461 16.293 68.6016 16.0625 67.9219 15.875C67.2422 15.6797 66.6875 15.582 66.2578 15.582C65.5078 15.582 65.1328 15.7656 65.1328 16.1328C65.1328 16.3594 65.2617 16.5547 65.5195 16.7188C65.7852 16.875 66.543 17.1992 67.793 17.6914C68.7227 18.0742 69.4141 18.4492 69.8672 18.8164C70.3281 19.1836 70.6641 19.6172 70.875 20.1172C71.0938 20.6094 71.2031 21.2109 71.2031 21.9219ZM82.1016 26V18.7578C82.1016 16.9766 81.5742 16.0859 80.5195 16.0859C79.7695 16.0859 79.2148 16.4023 78.8555 17.0352C78.5039 17.6602 78.3281 18.7031 78.3281 20.1641V26H73.7461V7.76562H78.3281V10.3555C78.3281 11.5273 78.2656 12.8633 78.1406 14.3633H78.3516C78.7891 13.6758 79.3086 13.1914 79.9102 12.9102C80.5117 12.6289 81.2109 12.4883 82.0078 12.4883C83.4922 12.4883 84.6445 12.918 85.4648 13.7773C86.293 14.6289 86.707 15.8242 86.707 17.3633V26H82.1016Z" fill="white"/>
<path d="M94.6523 26H90.0938V8.86719H100.219V12.582H94.6523V15.8516H99.7852V19.5664H94.6523V26ZM107.344 26H102.762V7.76562H107.344V26ZM108.914 12.7227H113.742L115.992 20.3398C116.102 20.7383 116.176 21.2188 116.215 21.7812H116.309C116.371 21.2422 116.465 20.7695 116.59 20.3633L118.898 12.7227H123.574L118.324 26.8438C117.652 28.6406 116.824 29.9102 115.84 30.6523C114.863 31.3945 113.586 31.7656 112.008 31.7656C111.398 31.7656 110.773 31.6992 110.133 31.5664V27.9688C110.547 28.0625 111.02 28.1094 111.551 28.1094C111.957 28.1094 112.312 28.0312 112.617 27.875C112.922 27.7188 113.188 27.4961 113.414 27.207C113.641 26.9258 113.883 26.4609 114.141 25.8125L108.914 12.7227Z" fill="black"/>
<path d="M146.703 3.09865C146.594 3.00818 146.434 2.97691 146.289 3.01748L131.599 7.13591C131.388 7.19517 131.274 7.38617 131.345 7.56258C131.416 7.73895 131.644 7.83391 131.856 7.77475L143.829 4.41814L129.633 12.5906L125.874 9.45155L130.071 8.27468C130.282 8.21548 130.396 8.02447 130.325 7.84806C130.254 7.67165 130.025 7.57655 129.814 7.63594L124.999 8.98589C124.867 9.02299 124.767 9.11468 124.735 9.22824C124.703 9.34176 124.744 9.46107 124.843 9.54355L129.193 13.1757L129.479 17.0038L129.38 17.0869C129.222 17.2185 129.222 17.4318 129.38 17.5634C129.459 17.6291 129.562 17.662 129.665 17.662C129.768 17.662 129.872 17.6291 129.95 17.5633L130.05 17.4803L134.634 17.7195L138.985 21.3517C139.061 21.4156 139.164 21.4503 139.27 21.4503C139.301 21.4503 139.332 21.4474 139.362 21.4414C139.498 21.4147 139.608 21.3312 139.652 21.2206L142.957 13.0031C143.028 12.8267 142.914 12.6357 142.703 12.5764C142.492 12.5173 142.263 12.6122 142.192 12.7887L139.095 20.4907L135.335 17.3515L145.123 5.49824L142.791 11.2981C142.72 11.4745 142.834 11.6655 143.045 11.7247C143.088 11.7367 143.131 11.7423 143.173 11.7423C143.342 11.7423 143.499 11.6534 143.556 11.5126L146.8 3.4441C146.849 3.3229 146.811 3.18912 146.703 3.09865ZM134.609 17.043L130.811 16.8448L143.572 6.1895L134.609 17.043ZM143.001 5.71306L130.24 16.3683L130.003 13.1965L143.001 5.71306Z" fill="black"/>
<path d="M128.531 20.9244H127.843C127.62 20.9244 127.44 21.0752 127.44 21.2614C127.44 21.4475 127.62 21.5983 127.843 21.5983H128.531C128.754 21.5983 128.934 21.4475 128.934 21.2614C128.934 21.0752 128.754 20.9244 128.531 20.9244Z" fill="black"/>
<path d="M132.02 22.1074C131.806 22.0541 131.581 22.1548 131.517 22.3331C131.485 22.4216 131.426 22.5021 131.342 22.5723L131.236 22.6605C131.079 22.7922 131.079 23.0055 131.236 23.137C131.315 23.2028 131.419 23.2357 131.522 23.2357C131.625 23.2357 131.728 23.2028 131.807 23.137L131.913 23.0488C132.092 22.8989 132.219 22.7234 132.29 22.527C132.354 22.3489 132.233 22.1611 132.02 22.1074Z" fill="black"/>
<path d="M126.814 19.6248C126.619 19.5345 126.373 19.5932 126.265 19.7559C126.145 19.936 126.082 20.1405 126.082 20.3473C126.082 20.4052 126.087 20.4638 126.097 20.5214C126.125 20.6897 126.298 20.8113 126.496 20.8113C126.515 20.8113 126.534 20.8102 126.553 20.8079C126.773 20.7819 126.927 20.6115 126.896 20.4272C126.891 20.4007 126.889 20.3738 126.889 20.3473C126.889 20.2533 126.916 20.1643 126.971 20.0829C127.079 19.9202 127.008 19.715 126.814 19.6248Z" fill="black"/>
<path d="M127.882 19.1507C127.985 19.1507 128.088 19.1179 128.167 19.0521L128.653 18.646C128.811 18.5144 128.811 18.3011 128.653 18.1696C128.496 18.038 128.24 18.038 128.083 18.1696L127.597 18.5756C127.439 18.7072 127.439 18.9205 127.597 19.0521C127.675 19.1178 127.779 19.1507 127.882 19.1507Z" fill="black"/>
<path d="M131.449 21.3316C131.487 21.1482 131.339 20.9741 131.119 20.9428C131.035 20.9307 130.947 20.9246 130.859 20.9246H130.365C130.142 20.9246 129.961 21.0754 129.961 21.2615C129.961 21.4476 130.142 21.5984 130.365 21.5984H130.859C130.902 21.5984 130.943 21.6013 130.983 21.607C131.007 21.6102 131.029 21.6118 131.052 21.6118C131.245 21.6118 131.416 21.4958 131.449 21.3316Z" fill="black"/>
<path d="M129.94 23.7434L129.454 24.1495C129.296 24.2811 129.296 24.4944 129.454 24.626C129.532 24.6917 129.636 24.7246 129.739 24.7246C129.842 24.7246 129.945 24.6917 130.024 24.626L130.511 24.2199C130.668 24.0883 130.668 23.875 130.511 23.7434C130.353 23.6119 130.097 23.6119 129.94 23.7434Z" fill="black"/>
<path d="M128.154 25.2343L127.926 25.4248C127.769 25.5564 127.769 25.7697 127.926 25.9013C128.005 25.9671 128.108 26 128.211 26C128.315 26 128.418 25.9671 128.497 25.9013L128.725 25.7108C128.883 25.5791 128.883 25.3658 128.725 25.2343C128.567 25.1027 128.312 25.1027 128.154 25.2343Z" fill="black"/>
</svg>
