<svg width="99" height="22" viewBox="0 0 99 22" fill="none" xmlns="http://www.w3.org/2000/svg">
<path d="M7.01367 17H1.08008V7.00586H7.01367V9.17285H3.78027V10.7451H6.77441V12.9121H3.78027V14.7988H7.01367V17ZM13.4941 17V12.7754C13.4941 12.2604 13.4189 11.873 13.2686 11.6133C13.1227 11.349 12.8857 11.2168 12.5576 11.2168C12.1064 11.2168 11.7806 11.3968 11.5801 11.7568C11.3796 12.1169 11.2793 12.7344 11.2793 13.6094V17H8.60645V9.25488H10.623L10.958 10.2119H11.1152C11.3431 9.84733 11.6576 9.57389 12.0586 9.3916C12.4642 9.20931 12.929 9.11816 13.4531 9.11816C14.3099 9.11816 14.9753 9.36654 15.4492 9.86328C15.9277 10.36 16.167 11.0596 16.167 11.9619V17H13.4941ZM25.293 9.25488V10.5469L24.2334 10.9365C24.3792 11.2008 24.4521 11.5085 24.4521 11.8594C24.4521 12.6934 24.1582 13.3405 23.5703 13.8008C22.987 14.2611 22.1143 14.4912 20.9521 14.4912C20.665 14.4912 20.4372 14.473 20.2686 14.4365C20.2048 14.555 20.1729 14.6667 20.1729 14.7715C20.1729 14.9036 20.2799 15.0062 20.4941 15.0791C20.7083 15.1475 20.9886 15.1816 21.335 15.1816H22.6201C24.3564 15.1816 25.2246 15.9131 25.2246 17.376C25.2246 18.3193 24.8213 19.0531 24.0146 19.5771C23.2126 20.1012 22.0846 20.3633 20.6309 20.3633C19.5326 20.3633 18.6849 20.1787 18.0879 19.8096C17.4954 19.445 17.1992 18.9186 17.1992 18.2305C17.1992 17.3053 17.7734 16.7083 18.9219 16.4395C18.6849 16.3392 18.4775 16.1774 18.2998 15.9541C18.1266 15.7308 18.04 15.5098 18.04 15.291C18.04 15.0495 18.1061 14.8376 18.2383 14.6553C18.3704 14.4684 18.6462 14.2474 19.0654 13.9922C18.6644 13.8145 18.3477 13.5365 18.1152 13.1582C17.8874 12.7799 17.7734 12.3197 17.7734 11.7773C17.7734 10.9342 18.0605 10.2803 18.6348 9.81543C19.209 9.35059 20.0293 9.11816 21.0957 9.11816C21.237 9.11816 21.4808 9.13411 21.8271 9.16602C22.1735 9.19792 22.4287 9.22754 22.5928 9.25488H25.293ZM19.4551 17.9639C19.4551 18.1826 19.5736 18.3581 19.8105 18.4902C20.0475 18.627 20.3643 18.6953 20.7607 18.6953C21.4079 18.6953 21.9251 18.6133 22.3125 18.4492C22.7044 18.2897 22.9004 18.0824 22.9004 17.8271C22.9004 17.6221 22.7819 17.4762 22.5449 17.3896C22.3079 17.3076 21.9684 17.2666 21.5264 17.2666H20.4805C20.1934 17.2666 19.9495 17.3327 19.749 17.4648C19.5531 17.6016 19.4551 17.7679 19.4551 17.9639ZM20.2959 11.791C20.2959 12.584 20.5716 12.9805 21.123 12.9805C21.3783 12.9805 21.5742 12.8825 21.7109 12.6865C21.8522 12.4906 21.9229 12.1966 21.9229 11.8047C21.9229 11.0026 21.6562 10.6016 21.123 10.6016C20.5716 10.6016 20.2959 10.998 20.2959 11.791ZM29.1484 17H26.4756V6.36328H29.1484V17ZM33.6875 17H31.0146V9.25488H33.6875V17ZM30.9463 7.32715C30.9463 6.92611 31.0579 6.6276 31.2812 6.43164C31.5046 6.23568 31.8646 6.1377 32.3613 6.1377C32.8581 6.1377 33.2204 6.23796 33.4482 6.43848C33.6761 6.639 33.79 6.93522 33.79 7.32715C33.79 8.111 33.3138 8.50293 32.3613 8.50293C31.418 8.50293 30.9463 8.111 30.9463 7.32715ZM41.5352 14.6211C41.5352 15.4505 41.2526 16.0771 40.6875 16.501C40.1224 16.9248 39.3112 17.1367 38.2539 17.1367C37.6797 17.1367 37.1807 17.1048 36.7568 17.041C36.333 16.9818 35.9001 16.8701 35.458 16.7061V14.5664C35.8727 14.7487 36.3262 14.8991 36.8184 15.0176C37.3151 15.1361 37.7572 15.1953 38.1445 15.1953C38.7233 15.1953 39.0127 15.0632 39.0127 14.7988C39.0127 14.6621 38.9307 14.5413 38.7666 14.4365C38.6071 14.3271 38.1377 14.1175 37.3584 13.8076C36.6475 13.516 36.1507 13.1855 35.8682 12.8164C35.5856 12.4427 35.4443 11.971 35.4443 11.4014C35.4443 10.6813 35.7223 10.1208 36.2783 9.71973C36.8343 9.31868 37.6204 9.11816 38.6367 9.11816C39.1471 9.11816 39.6257 9.17513 40.0723 9.28906C40.5234 9.39844 40.9906 9.56022 41.4736 9.77441L40.749 11.4971C40.3936 11.3376 40.0176 11.2031 39.6211 11.0938C39.2246 10.9798 38.901 10.9229 38.6504 10.9229C38.2129 10.9229 37.9941 11.0299 37.9941 11.2441C37.9941 11.3763 38.0693 11.4902 38.2197 11.5859C38.3747 11.6771 38.8167 11.8662 39.5459 12.1533C40.0882 12.3766 40.4915 12.5954 40.7559 12.8096C41.0247 13.0238 41.2207 13.2767 41.3438 13.5684C41.4714 13.8555 41.5352 14.2064 41.5352 14.6211ZM47.8926 17V12.7754C47.8926 11.7363 47.585 11.2168 46.9697 11.2168C46.5322 11.2168 46.2087 11.4014 45.999 11.7705C45.7939 12.1351 45.6914 12.7435 45.6914 13.5957V17H43.0186V6.36328H45.6914V7.87402C45.6914 8.55762 45.6549 9.33691 45.582 10.2119H45.7051C45.9603 9.81087 46.2633 9.52832 46.6143 9.36426C46.9652 9.2002 47.373 9.11816 47.8379 9.11816C48.7038 9.11816 49.376 9.36882 49.8545 9.87012C50.3376 10.3669 50.5791 11.0641 50.5791 11.9619V17H47.8926Z" fill="#8EA2EC"/>
<path d="M55.2139 17H52.5547V7.00586H58.4609V9.17285H55.2139V11.0801H58.208V13.2471H55.2139V17ZM62.6172 17H59.9443V6.36328H62.6172V17ZM63.5332 9.25488H66.3496L67.6621 13.6982C67.7259 13.9307 67.7692 14.2109 67.792 14.5391H67.8467C67.8831 14.2246 67.9378 13.9489 68.0107 13.7119L69.3574 9.25488H72.085L69.0225 17.4922C68.6305 18.5404 68.1475 19.2809 67.5732 19.7139C67.0036 20.1468 66.2585 20.3633 65.3379 20.3633C64.9824 20.3633 64.6178 20.3245 64.2441 20.2471V18.1484C64.4857 18.2031 64.7614 18.2305 65.0713 18.2305C65.3083 18.2305 65.5156 18.1849 65.6934 18.0938C65.8711 18.0026 66.026 17.8727 66.1582 17.7041C66.2904 17.54 66.4316 17.2689 66.582 16.8906L63.5332 9.25488Z" fill="black"/>
<path d="M96.2137 0.0943609C96.1075 0.00782187 95.9505 -0.0220844 95.8082 0.0167164L81.409 3.95609C81.2019 4.01277 81.0904 4.19547 81.1599 4.36421C81.2294 4.5329 81.4535 4.62374 81.6608 4.56715L93.3963 1.35648L79.4822 9.17366L75.797 6.17104L79.9111 5.04535C80.1182 4.98872 80.2297 4.80601 80.1601 4.63728C80.0906 4.46854 79.8666 4.37757 79.6593 4.43438L74.9401 5.72563C74.8103 5.76112 74.7123 5.84882 74.681 5.95745C74.6497 6.06603 74.6895 6.18015 74.7863 6.25904L79.0502 9.73324L79.331 13.395L79.2335 13.4744C79.0791 13.6003 79.0791 13.8044 79.2336 13.9302C79.3108 13.9931 79.412 14.0245 79.5132 14.0245C79.6145 14.0245 79.7157 13.9931 79.7929 13.9301L79.8904 13.8507L84.3843 14.0795L88.6482 17.5538C88.7232 17.6149 88.8242 17.6481 88.9279 17.6481C88.958 17.6481 88.9883 17.6453 89.0183 17.6396C89.1517 17.6141 89.2592 17.5342 89.3029 17.4284L92.5418 9.5682C92.6113 9.39946 92.4998 9.21671 92.2928 9.16008C92.0857 9.10349 91.8614 9.19424 91.7919 9.36306L88.7562 16.7302L85.0711 13.7275L94.665 2.38962L92.3792 7.93732C92.3097 8.10606 92.4212 8.28876 92.6283 8.34539C92.67 8.35682 92.7124 8.36224 92.7542 8.36224C92.9195 8.36224 93.0736 8.27716 93.1291 8.14245L96.309 0.424791C96.3567 0.308861 96.3199 0.1809 96.2137 0.0943609ZM84.3597 13.4325L80.6363 13.2428L93.1446 3.05083L84.3597 13.4325ZM92.5852 2.5951L80.0769 12.787L79.8442 9.75318L92.5852 2.5951Z" fill="black"/>
<path d="M78.4016 17.1451H77.7274C77.509 17.1451 77.3319 17.2894 77.3319 17.4674C77.3319 17.6454 77.509 17.7897 77.7274 17.7897H78.4016C78.62 17.7897 78.7971 17.6454 78.7971 17.4674C78.7971 17.2894 78.62 17.1451 78.4016 17.1451Z" fill="black"/>
<path d="M81.8212 18.2767C81.6123 18.2257 81.3915 18.3221 81.3286 18.4926C81.2973 18.5772 81.2397 18.6542 81.1572 18.7214L81.0536 18.8058C80.8991 18.9317 80.8991 19.1357 81.0536 19.2616C81.1309 19.3245 81.2321 19.3559 81.3333 19.3559C81.4345 19.3559 81.5358 19.3245 81.613 19.2616L81.7166 19.1772C81.8925 19.0338 82.0168 18.8659 82.0861 18.6781C82.149 18.5077 82.0304 18.328 81.8212 18.2767Z" fill="black"/>
<path d="M76.7183 15.902C76.5275 15.8156 76.2865 15.8717 76.1806 16.0274C76.0632 16.1996 76.0012 16.3953 76.0012 16.5931C76.0012 16.6485 76.0061 16.7045 76.0156 16.7596C76.0435 16.9206 76.2128 17.0369 76.4067 17.0369C76.4252 17.0369 76.4438 17.0358 76.4625 17.0337C76.6789 17.0088 76.8294 16.8457 76.7989 16.6695C76.7945 16.6441 76.7922 16.6184 76.7922 16.5931C76.7922 16.5031 76.8191 16.4181 76.8722 16.3401C76.9782 16.1845 76.9093 15.9883 76.7183 15.902Z" fill="black"/>
<path d="M77.7654 15.4486C77.8666 15.4486 77.9678 15.4171 78.0451 15.3542L78.5217 14.9658C78.6762 14.8399 78.6762 14.6359 78.5217 14.5101C78.3672 14.3843 78.1168 14.3843 77.9624 14.5101L77.4857 14.8985C77.3313 15.0244 77.3313 15.2284 77.4857 15.3542C77.5629 15.4171 77.6642 15.4486 77.7654 15.4486Z" fill="black"/>
<path d="M81.2621 17.5346C81.2989 17.3591 81.1542 17.1926 80.9389 17.1626C80.8558 17.151 80.7699 17.1452 80.6835 17.1452H80.1991C79.9806 17.1452 79.8036 17.2894 79.8036 17.4674C79.8036 17.6455 79.9806 17.7897 80.1991 17.7897H80.6835C80.7253 17.7897 80.7664 17.7925 80.8056 17.7979C80.8282 17.801 80.8506 17.8026 80.8727 17.8026C81.0619 17.8026 81.2292 17.6916 81.2621 17.5346Z" fill="black"/>
<path d="M79.7826 19.8415L79.3059 20.2299C79.1515 20.3558 79.1515 20.5598 79.3059 20.6857C79.3832 20.7486 79.4844 20.78 79.5856 20.78C79.6868 20.78 79.7881 20.7486 79.8653 20.6857L80.342 20.2973C80.4965 20.1714 80.4965 19.9674 80.342 19.8415C80.1875 19.7157 79.9371 19.7157 79.7826 19.8415Z" fill="black"/>
<path d="M78.0324 21.2676L77.8087 21.4498C77.6543 21.5757 77.6543 21.7797 77.8087 21.9056C77.886 21.9685 77.9873 22 78.0884 22C78.1896 22 78.2909 21.9685 78.3682 21.9056L78.5919 21.7233C78.7463 21.5974 78.7463 21.3934 78.5919 21.2676C78.4373 21.1417 78.187 21.1417 78.0324 21.2676Z" fill="black"/>
</svg>
