<svg width="33" height="40" viewBox="0 0 33 40" fill="none" xmlns="http://www.w3.org/2000/svg">
<g clip-path="url(#clip0)">
<path d="M32.2025 31.8334C31.5497 32.7834 30.5826 33.3329 29.5625 33.3334H3.43754C2.41751 33.3329 1.45032 32.7834 0.797544 31.8334L13.4063 19.1L14.7126 20.1834C15.7886 21.0834 17.2115 21.0834 18.2876 20.1834L19.5938 19.1L32.2025 31.8334Z" fill="#1E88E5"/>
<path d="M32.395 8.48346L19.5938 19.1001L18.2875 20.1834C17.2115 21.0834 15.7885 21.0834 14.7125 20.1834L13.4062 19.1001L0.605083 8.46674C1.24923 7.34088 2.30722 6.66854 3.4376 6.66674H29.5625C30.698 6.65948 31.7612 7.34135 32.395 8.48346Z" fill="#64B5F6"/>
<path d="M13.4063 19.1001L0.797548 31.8334C0.281472 31.0857 -0.000896156 30.1416 7.06386e-05 29.1668V10.8334C-0.00411881 9.98789 0.207223 9.16133 0.605091 8.4668L13.4063 19.1001Z" fill="#2196F3"/>
<path d="M33 10.8335V29.1668C33.0009 30.1416 32.7186 31.0858 32.2025 31.8334L19.5938 19.1001L32.395 8.48346C32.7909 9.17299 33.0021 9.99338 33 10.8335Z" fill="#2196F3"/>
</g>
<defs>
<clipPath id="clip0">
<rect width="33" height="40" fill="white"/>
</clipPath>
</defs>
</svg>
