<svg width="41" height="40" viewBox="0 0 41 40" fill="none" xmlns="http://www.w3.org/2000/svg">
<g clip-path="url(#clip0)">
<path d="M36.0026 0H24.375C21.1983 0 19.3777 2.99048 19.3777 8.20357C19.3777 13.3399 21.2452 16.4071 24.375 16.4071H26.5851V19.923C26.5851 20.3967 26.8784 20.8248 27.3266 21.0056C27.7633 21.1848 28.2866 21.0922 28.6357 20.7515L33.0886 16.4071H36.0026C39.1793 16.4071 40.9999 13.4167 40.9999 8.20357C40.9999 3.0672 39.1324 0 36.0026 0V0Z" fill="url(#paint0_linear)"/>
<path d="M34.9937 7.03165C34.3303 7.03165 33.7925 7.55637 33.7925 8.20359C33.7925 8.85081 34.3303 9.37553 34.9937 9.37553C35.6571 9.37553 36.195 8.85081 36.195 8.20359C36.195 7.55637 35.6572 7.03165 34.9937 7.03165ZM30.1888 9.37553C30.8522 9.37553 31.39 8.85081 31.39 8.20359C31.39 7.55637 30.8522 7.03165 30.1888 7.03165C29.5254 7.03165 28.9875 7.55637 28.9875 8.20359C28.9875 8.85081 29.5254 9.37553 30.1888 9.37553ZM25.3838 9.37553C26.0472 9.37553 26.5851 8.85081 26.5851 8.20359C26.5851 7.55637 26.0472 7.03165 25.3838 7.03165C24.7204 7.03165 24.1826 7.55637 24.1826 8.20359C24.1826 8.85081 24.7204 9.37553 25.3838 9.37553ZM27.035 25.2271C26.5845 24.7876 25.7868 24.7876 25.3363 25.2271L22.3074 28.181C18.9618 25.654 16.4913 23.6615 12.1181 18.2333L15.1423 15.2828C15.6131 14.8235 15.6096 14.0815 15.1423 13.6256L7.49836 6.16707C7.04789 5.72759 6.25019 5.72759 5.79973 6.16707L1.75724 10.111C-0.2863 12.1035 -0.581884 15.2416 1.05108 17.5718C4.38027 22.327 9.95481 30.2868 22.9901 38.9745C25.3732 40.565 28.5885 40.2824 30.6363 38.2866L34.6787 34.3427C35.148 33.885 35.148 33.1433 34.6787 32.6855L27.035 25.2271Z" fill="url(#paint1_linear)"/>
</g>
<defs>
<linearGradient id="paint0_linear" x1="30.1888" y1="21.0951" x2="30.1888" y2="0" gradientUnits="userSpaceOnUse">
<stop stop-color="#ADDCFF"/>
<stop offset="0.5028" stop-color="#EAF6FF"/>
<stop offset="1" stop-color="#EAF6FF"/>
</linearGradient>
<linearGradient id="paint1_linear" x1="18.0975" y1="40" x2="18.0975" y2="5.83744" gradientUnits="userSpaceOnUse">
<stop stop-color="#5558FF"/>
<stop offset="1" stop-color="#00C0FF"/>
</linearGradient>
<clipPath id="clip0">
<rect width="41" height="40" fill="white"/>
</clipPath>
</defs>
</svg>
